REM DIRINDEX 1\5,1\2\6,1\2\7,1\3\8,1\3\9,1\4\10,1\4\11,1\4\12
REM DIRNAME cjc026,folder01,folder02,folder03,folder04,folder05,folder06,folder07,folder08,folder09,folder10,folder11
TITLE ""
FILE "EJE_DB3000_5th_1A_22.mp3" MP3
  TRACK 01 AUDIO
    TITLE "0:"
    INDEX 01 00:00:00
  TRACK 02 AUDIO
    TITLE "10:cjc026_07473"
    INDEX 01 00:00:08
  TRACK 03 AUDIO
    TITLE "0:"
    INDEX 01 00:01:16
  TRACK 04 AUDIO
    TITLE "11:cjc026_07474"
    INDEX 01 00:01:54
  TRACK 05 AUDIO
    TITLE "0:"
    INDEX 01 00:03:09
  TRACK 06 AUDIO
    TITLE "12:cjc026_07475"
    INDEX 01 00:03:45
  TRACK 07 AUDIO
    TITLE "0:"
    INDEX 01 00:04:53
  TRACK 08 AUDIO
    TITLE "10:cjc026_07476"
    INDEX 01 00:05:16
  TRACK 09 AUDIO
    TITLE "0:"
    INDEX 01 00:06:41
  TRACK 10 AUDIO
    TITLE "11:cjc026_07477"
    INDEX 01 00:07:01
  TRACK 11 AUDIO
    TITLE "0:"
    INDEX 01 00:08:31
  TRACK 12 AUDIO
    TITLE "12:cjc026_07478"
    INDEX 01 00:08:66
  TRACK 13 AUDIO
    TITLE "0:"
    INDEX 01 00:10:16
  TRACK 14 AUDIO
    TITLE "10:cjc026_07479"
    INDEX 01 00:10:51
  TRACK 15 AUDIO
    TITLE "0:"
    INDEX 01 00:12:09
  TRACK 16 AUDIO
    TITLE "11:cjc026_07480"
    INDEX 01 00:12:45
  TRACK 17 AUDIO
    TITLE "0:"
    INDEX 01 00:13:72
  TRACK 18 AUDIO
    TITLE "12:cjc026_07481"
    INDEX 01 00:14:35
  TRACK 19 AUDIO
    TITLE "0:"
    INDEX 01 00:15:68
  TRACK 20 AUDIO
    TITLE "10:cjc026_07482"
    INDEX 01 00:16:28
  TRACK 21 AUDIO
    TITLE "0:"
    INDEX 01 00:17:45
  TRACK 22 AUDIO
    TITLE "11:cjc026_07483"
    INDEX 01 00:18:05
  TRACK 23 AUDIO
    TITLE "0:"
    INDEX 01 00:19:27
  TRACK 24 AUDIO
    TITLE "12:cjc026_07484"
    INDEX 01 00:19:62
  TRACK 25 AUDIO
    TITLE "0:"
    INDEX 01 00:21:04
  TRACK 26 AUDIO
    TITLE "10:cjc026_07485"
    INDEX 01 00:21:42
  TRACK 27 AUDIO
    TITLE "0:"
    INDEX 01 00:22:56
  TRACK 28 AUDIO
    TITLE "11:cjc026_07486"
    INDEX 01 00:23:19
  TRACK 29 AUDIO
    TITLE "0:"
    INDEX 01 00:24:46
  TRACK 30 AUDIO
    TITLE "12:cjc026_07487"
    INDEX 01 00:25:06
  TRACK 31 AUDIO
    TITLE "0:"
    INDEX 01 00:26:21
  TRACK 32 AUDIO
    TITLE "10:cjc026_07488"
    INDEX 01 00:26:56
  TRACK 33 AUDIO
    TITLE "0:"
    INDEX 01 00:28:06
  TRACK 34 AUDIO
    TITLE "11:cjc026_07489"
    INDEX 01 00:28:41
  TRACK 35 AUDIO
    TITLE "0:"
    INDEX 01 00:30:07
  TRACK 36 AUDIO
    TITLE "12:cjc026_07490"
    INDEX 01 00:30:42
  TRACK 37 AUDIO
    TITLE "0:"
    INDEX 01 00:31:64
  TRACK 38 AUDIO
    TITLE "10:cjc026_07491"
    INDEX 01 00:32:27
  TRACK 39 AUDIO
    TITLE "0:"
    INDEX 01 00:33:41
  TRACK 40 AUDIO
    TITLE "11:cjc026_07492"
    INDEX 01 00:34:06
  TRACK 41 AUDIO
    TITLE "0:"
    INDEX 01 00:35:15
  TRACK 42 AUDIO
    TITLE "12:cjc026_07493"
    INDEX 01 00:35:50
  TRACK 43 AUDIO
    TITLE "0:"
    INDEX 01 00:36:64
  TRACK 44 AUDIO
    TITLE "10:cjc026_07494"
    INDEX 01 00:37:27
  TRACK 45 AUDIO
    TITLE "0:"
    INDEX 01 00:38:44
  TRACK 46 AUDIO
    TITLE "11:cjc026_07495"
    INDEX 01 00:39:04
  TRACK 47 AUDIO
    TITLE "0:"
    INDEX 01 00:42:03
  TRACK 48 AUDIO
    TITLE "12:cjc026_07496"
    INDEX 01 00:42:41
  TRACK 49 AUDIO
    TITLE "0:"
    INDEX 01 00:43:58
  TRACK 50 AUDIO
    TITLE "10:cjc026_07497"
    INDEX 01 00:44:18
  TRACK 51 AUDIO
    TITLE "0:"
    INDEX 01 00:45:35
  TRACK 52 AUDIO
    TITLE "11:cjc026_07498"
    INDEX 01 00:45:70
  TRACK 53 AUDIO
    TITLE "0:"
    INDEX 01 00:47:36
  TRACK 54 AUDIO
    TITLE "12:cjc026_07499"
    INDEX 01 00:47:71
  TRACK 55 AUDIO
    TITLE "0:"
    INDEX 01 00:49:13
  TRACK 56 AUDIO
    TITLE "10:cjc026_07500"
    INDEX 01 00:49:48
  TRACK 57 AUDIO
    TITLE "0:"
    INDEX 01 00:50:65
  TRACK 58 AUDIO
    TITLE "11:cjc026_07501"
    INDEX 01 00:51:25
  TRACK 59 AUDIO
    TITLE "0:"
    INDEX 01 00:52:47
  TRACK 60 AUDIO
    TITLE "12:cjc026_07502"
    INDEX 01 00:53:07
  TRACK 61 AUDIO
    TITLE "0:"
    INDEX 01 00:54:21
  TRACK 62 AUDIO
    TITLE "10:cjc026_07503"
    INDEX 01 00:54:59
  TRACK 63 AUDIO
    TITLE "0:"
    INDEX 01 00:56:03
  TRACK 64 AUDIO
    TITLE "11:cjc026_07504"
    INDEX 01 00:56:41
  TRACK 65 AUDIO
    TITLE "0:"
    INDEX 01 00:57:63
  TRACK 66 AUDIO
    TITLE "12:cjc026_07505"
    INDEX 01 00:58:24
  TRACK 67 AUDIO
    TITLE "0:"
    INDEX 01 00:59:43
  TRACK 68 AUDIO
    TITLE "10:cjc026_07506"
    INDEX 01 01:00:03
  TRACK 69 AUDIO
    TITLE "0:"
    INDEX 01 01:01:17
  TRACK 70 AUDIO
    TITLE "11:cjc026_07507"
    INDEX 01 01:01:52
  TRACK 71 AUDIO
    TITLE "0:"
    INDEX 01 01:03:27
  TRACK 72 AUDIO
    TITLE "12:cjc026_07508"
    INDEX 01 01:03:62
  TRACK 73 AUDIO
    TITLE "0:"
    INDEX 01 01:04:73
  TRACK 74 AUDIO
    TITLE "10:cjc026_07509"
    INDEX 01 01:05:36
  TRACK 75 AUDIO
    TITLE "0:"
    INDEX 01 01:06:47
  TRACK 76 AUDIO
    TITLE "11:cjc026_07510"
    INDEX 01 01:07:10
  TRACK 77 AUDIO
    TITLE "0:"
    INDEX 01 01:08:35
  TRACK 78 AUDIO
    TITLE "12:cjc026_07511"
    INDEX 01 01:08:70
  TRACK 79 AUDIO
    TITLE "0:"
    INDEX 01 01:10:06
